<svg width="32" height="24" viewBox="0 0 32 24" fill="none" xmlns="http://www.w3.org/2000/svg">
<path d="M17.5787 8.23107C17.5787 8.23107 17.0845 8.87364 17.4239 9.51453C17.4239 9.51453 17.8858 8.86603 17.5787 8.23107Z" fill="#4C0519"/>
<path fill-rule="evenodd" clip-rule="evenodd" d="M18.0489 20.2559C22.7363 19.1175 26.2323 14.8161 26.2323 9.69747C26.2323 7.6146 25.6528 5.66753 24.6503 4.01305H23.0509C24.2165 5.59923 24.9078 7.56742 24.9078 9.69747C24.9078 13.0056 23.2396 15.9241 20.7155 17.6266C19.8909 18.0255 17.1242 19.2912 16.7567 18.4741C16.3237 17.5119 16.481 15.5286 17.8776 15.2984C17.9662 15.2838 18.0533 15.2714 18.139 15.2603C18.2417 15.247 18.3425 15.2355 18.4415 15.2241C19.563 15.0962 20.4647 14.9933 21.497 12.5536C21.497 12.5536 22.7462 11.341 21.6542 10.5896C20.5623 9.83829 20.2775 9.16706 20.4448 8.51608C20.612 7.86507 20.8479 5.15989 16.8941 3.9473C16.8941 3.9473 17.6168 0.881221 17.1002 0.565823C16.6971 0.319598 15.0629 1.60219 14.3716 2.90586C13.7408 1.63591 12.7921 0 12.0933 0C11.3234 0 9.31671 2.29199 8.52281 5.1253C7.9615 5.28893 7.47554 5.46178 7.14108 5.63632C7.40851 5.06206 7.73052 4.51901 8.1014 4.01474H6.50199C5.49947 5.66922 4.91997 7.61629 4.91997 9.69916C4.91997 14.8101 8.40607 19.1065 13.0835 20.2525H0C1.85936 22.3396 5.34712 22.7941 5.34712 22.7941L5.69483 23.9949L26.306 24L26.6532 22.7991C26.6933 22.7938 30.1522 22.3325 32 20.2576L18.0489 20.2559ZM12.1438 1.80292L13.6489 4.58736C13.6489 4.58736 11.0717 5.1692 10.6388 7.8339C10.6388 7.8339 8.88787 4.78891 12.1438 1.80292ZM14.836 4.18261C14.836 4.18261 19.963 4.72146 20.1699 7.71923C20.1699 7.71923 20.6567 4.39005 14.5223 3.67497C14.5223 3.67497 13.7615 3.95747 14.836 4.18261ZM10.8896 14.1659L11.037 13.0992C11.037 13.0992 14.1266 11.0712 18.5026 12.0544L18.3701 12.2821C18.3701 12.2821 13.8997 11.8815 10.8896 14.1659ZM12.9411 16.9462L12.5867 15.9393C12.5867 15.9393 14.4155 13.2645 18.4289 13.1743L18.2965 13.3994C18.2965 13.3994 15.2276 13.6397 12.9411 16.9462ZM15.6457 8.15519C15.6093 8.17289 16.029 10.6403 18.5374 10.0584C18.5374 10.0584 18.852 6.64239 15.6457 8.15519Z" fill="#4C0519"/>
<path d="M28.6969 7.57331C29.1588 7.84144 29.7648 8.74119 29.5984 9.82058C29.3931 11.1478 28.1099 12.3073 25.979 13.1531C25.6917 14.0444 25.2968 14.8869 24.8101 15.6627C26.729 15.1441 28.2688 14.4366 29.3964 13.5511C30.9362 12.3427 31.4238 11.0256 31.5621 10.1342C31.8626 8.18969 30.8435 6.48885 29.682 5.81424C28.1074 4.90016 26.5966 5.05531 25.6404 5.32517C25.8995 5.93991 26.1065 6.5833 26.2538 7.24864C26.8441 7.09683 27.7556 7.02432 28.6985 7.57244L28.6969 7.57331Z" fill="#4C0519"/>
</svg>
